<mxfile host="app.diagrams.net" modified="2022-07-17T19:00:39.638Z" agent="5.0 (X11)" etag="F7Edrqkak7K77nfsw0Jx" version="17.1.3" type="github">
  <diagram id="C5RBs43oDa-KdzZeNtuy" name="Page-1">
    <mxGraphModel dx="863" dy="507" grid="1" gridSize="10" guides="1" tooltips="1" connect="1" arrows="1" fold="1" page="1" pageScale="1" pageWidth="827" pageHeight="1169" math="0" shadow="0">
      <root>
        <mxCell id="WIyWlLk6GJQsqaUBKTNV-0" />
        <mxCell id="WIyWlLk6GJQsqaUBKTNV-1" parent="WIyWlLk6GJQsqaUBKTNV-0" />
        <mxCell id="WIyWlLk6GJQsqaUBKTNV-2" value="" style="rounded=0;html=1;jettySize=auto;orthogonalLoop=1;fontSize=11;endArrow=block;endFill=0;endSize=8;strokeWidth=1;shadow=0;labelBackgroundColor=none;edgeStyle=orthogonalEdgeStyle;" parent="WIyWlLk6GJQsqaUBKTNV-1" source="WIyWlLk6GJQsqaUBKTNV-3" target="WIyWlLk6GJQsqaUBKTNV-6" edge="1">
          <mxGeometry relative="1" as="geometry" />
        </mxCell>
        <mxCell id="WIyWlLk6GJQsqaUBKTNV-3" value="Payable amount = total products amount - total payment amount" style="rounded=1;whiteSpace=wrap;html=1;fontSize=12;glass=0;strokeWidth=1;shadow=0;" parent="WIyWlLk6GJQsqaUBKTNV-1" vertex="1">
          <mxGeometry x="160" y="80" width="210" height="40" as="geometry" />
        </mxCell>
        <mxCell id="pdm6zaToR2iUX3HoChXL-5" value="T" style="edgeStyle=orthogonalEdgeStyle;rounded=0;orthogonalLoop=1;jettySize=auto;html=1;exitX=0.5;exitY=1;exitDx=0;exitDy=0;entryX=0.5;entryY=0;entryDx=0;entryDy=0;" edge="1" parent="WIyWlLk6GJQsqaUBKTNV-1" source="WIyWlLk6GJQsqaUBKTNV-6" target="pdm6zaToR2iUX3HoChXL-3">
          <mxGeometry y="15" relative="1" as="geometry">
            <mxPoint as="offset" />
          </mxGeometry>
        </mxCell>
        <mxCell id="pdm6zaToR2iUX3HoChXL-25" value="F" style="edgeStyle=orthogonalEdgeStyle;rounded=0;orthogonalLoop=1;jettySize=auto;html=1;exitX=1;exitY=0.5;exitDx=0;exitDy=0;entryX=0;entryY=0.5;entryDx=0;entryDy=0;entryPerimeter=0;" edge="1" parent="WIyWlLk6GJQsqaUBKTNV-1" source="WIyWlLk6GJQsqaUBKTNV-6" target="pdm6zaToR2iUX3HoChXL-23">
          <mxGeometry x="-1" y="15" relative="1" as="geometry">
            <mxPoint as="offset" />
          </mxGeometry>
        </mxCell>
        <mxCell id="WIyWlLk6GJQsqaUBKTNV-6" value="Payable Amount &amp;gt; 0" style="rhombus;whiteSpace=wrap;html=1;shadow=0;fontFamily=Helvetica;fontSize=12;align=center;strokeWidth=1;spacing=6;spacingTop=-4;" parent="WIyWlLk6GJQsqaUBKTNV-1" vertex="1">
          <mxGeometry x="200" y="170" width="130" height="110" as="geometry" />
        </mxCell>
        <mxCell id="pdm6zaToR2iUX3HoChXL-28" style="edgeStyle=orthogonalEdgeStyle;rounded=0;orthogonalLoop=1;jettySize=auto;html=1;exitX=0.5;exitY=1;exitDx=0;exitDy=0;entryX=0.5;entryY=0;entryDx=0;entryDy=0;" edge="1" parent="WIyWlLk6GJQsqaUBKTNV-1" source="pdm6zaToR2iUX3HoChXL-0" target="pdm6zaToR2iUX3HoChXL-27">
          <mxGeometry relative="1" as="geometry" />
        </mxCell>
        <mxCell id="pdm6zaToR2iUX3HoChXL-0" value="mark transaction as paid" style="rounded=0;whiteSpace=wrap;html=1;" vertex="1" parent="WIyWlLk6GJQsqaUBKTNV-1">
          <mxGeometry x="550" y="195" width="120" height="60" as="geometry" />
        </mxCell>
        <mxCell id="pdm6zaToR2iUX3HoChXL-7" style="edgeStyle=orthogonalEdgeStyle;rounded=0;orthogonalLoop=1;jettySize=auto;html=1;exitX=1;exitY=0.5;exitDx=0;exitDy=0;entryX=0;entryY=0.5;entryDx=0;entryDy=0;entryPerimeter=0;" edge="1" parent="WIyWlLk6GJQsqaUBKTNV-1" source="pdm6zaToR2iUX3HoChXL-2" target="pdm6zaToR2iUX3HoChXL-6">
          <mxGeometry relative="1" as="geometry" />
        </mxCell>
        <mxCell id="pdm6zaToR2iUX3HoChXL-2" value="Pass user to payment method" style="verticalLabelPosition=bottom;verticalAlign=top;html=1;shape=process;whiteSpace=wrap;rounded=1;size=0.14;arcSize=6;" vertex="1" parent="WIyWlLk6GJQsqaUBKTNV-1">
          <mxGeometry x="215" y="430" width="100" height="60" as="geometry" />
        </mxCell>
        <mxCell id="pdm6zaToR2iUX3HoChXL-4" style="edgeStyle=orthogonalEdgeStyle;rounded=0;orthogonalLoop=1;jettySize=auto;html=1;exitX=0.5;exitY=1;exitDx=0;exitDy=0;entryX=0.5;entryY=0;entryDx=0;entryDy=0;" edge="1" parent="WIyWlLk6GJQsqaUBKTNV-1" source="pdm6zaToR2iUX3HoChXL-3" target="pdm6zaToR2iUX3HoChXL-2">
          <mxGeometry relative="1" as="geometry" />
        </mxCell>
        <mxCell id="pdm6zaToR2iUX3HoChXL-3" value="Select payment method and amout by user" style="html=1;strokeWidth=2;shape=manualInput;whiteSpace=wrap;rounded=1;size=26;arcSize=11;" vertex="1" parent="WIyWlLk6GJQsqaUBKTNV-1">
          <mxGeometry x="192.5" y="300" width="145" height="90" as="geometry" />
        </mxCell>
        <mxCell id="pdm6zaToR2iUX3HoChXL-14" value="F" style="edgeStyle=orthogonalEdgeStyle;rounded=0;orthogonalLoop=1;jettySize=auto;html=1;exitX=0.5;exitY=1;exitDx=0;exitDy=0;exitPerimeter=0;entryX=0.5;entryY=0;entryDx=0;entryDy=0;entryPerimeter=0;" edge="1" parent="WIyWlLk6GJQsqaUBKTNV-1" source="pdm6zaToR2iUX3HoChXL-6" target="pdm6zaToR2iUX3HoChXL-12">
          <mxGeometry x="-0.5556" y="-10" relative="1" as="geometry">
            <mxPoint as="offset" />
          </mxGeometry>
        </mxCell>
        <mxCell id="pdm6zaToR2iUX3HoChXL-15" style="edgeStyle=orthogonalEdgeStyle;rounded=0;orthogonalLoop=1;jettySize=auto;html=1;exitX=1;exitY=0.5;exitDx=0;exitDy=0;exitPerimeter=0;entryX=0;entryY=0.5;entryDx=0;entryDy=0;" edge="1" parent="WIyWlLk6GJQsqaUBKTNV-1" source="pdm6zaToR2iUX3HoChXL-6" target="pdm6zaToR2iUX3HoChXL-9">
          <mxGeometry relative="1" as="geometry" />
        </mxCell>
        <mxCell id="pdm6zaToR2iUX3HoChXL-16" value="T" style="edgeLabel;html=1;align=center;verticalAlign=middle;resizable=0;points=[];" vertex="1" connectable="0" parent="pdm6zaToR2iUX3HoChXL-15">
          <mxGeometry x="-0.2" relative="1" as="geometry">
            <mxPoint x="-10" y="-10" as="offset" />
          </mxGeometry>
        </mxCell>
        <mxCell id="pdm6zaToR2iUX3HoChXL-6" value="Successful Payment" style="strokeWidth=2;html=1;shape=mxgraph.flowchart.decision;whiteSpace=wrap;" vertex="1" parent="WIyWlLk6GJQsqaUBKTNV-1">
          <mxGeometry x="400" y="410" width="100" height="100" as="geometry" />
        </mxCell>
        <mxCell id="pdm6zaToR2iUX3HoChXL-19" style="edgeStyle=orthogonalEdgeStyle;rounded=0;orthogonalLoop=1;jettySize=auto;html=1;exitX=0.5;exitY=1;exitDx=0;exitDy=0;entryX=0.5;entryY=0;entryDx=0;entryDy=0;entryPerimeter=0;" edge="1" parent="WIyWlLk6GJQsqaUBKTNV-1" source="pdm6zaToR2iUX3HoChXL-9" target="pdm6zaToR2iUX3HoChXL-11">
          <mxGeometry relative="1" as="geometry" />
        </mxCell>
        <mxCell id="pdm6zaToR2iUX3HoChXL-9" value="Save payment" style="rounded=1;whiteSpace=wrap;html=1;" vertex="1" parent="WIyWlLk6GJQsqaUBKTNV-1">
          <mxGeometry x="550" y="430" width="120" height="60" as="geometry" />
        </mxCell>
        <mxCell id="pdm6zaToR2iUX3HoChXL-20" style="edgeStyle=orthogonalEdgeStyle;rounded=0;orthogonalLoop=1;jettySize=auto;html=1;exitX=0.5;exitY=1;exitDx=0;exitDy=0;exitPerimeter=0;entryX=0;entryY=0.5;entryDx=0;entryDy=0;" edge="1" parent="WIyWlLk6GJQsqaUBKTNV-1" source="pdm6zaToR2iUX3HoChXL-11" target="WIyWlLk6GJQsqaUBKTNV-3">
          <mxGeometry relative="1" as="geometry">
            <Array as="points">
              <mxPoint x="640" y="660" />
              <mxPoint x="140" y="660" />
              <mxPoint x="140" y="100" />
            </Array>
          </mxGeometry>
        </mxCell>
        <mxCell id="pdm6zaToR2iUX3HoChXL-11" value="Receipt" style="strokeWidth=2;html=1;shape=mxgraph.flowchart.display;whiteSpace=wrap;" vertex="1" parent="WIyWlLk6GJQsqaUBKTNV-1">
          <mxGeometry x="560" y="555" width="100" height="60" as="geometry" />
        </mxCell>
        <mxCell id="pdm6zaToR2iUX3HoChXL-13" style="edgeStyle=orthogonalEdgeStyle;rounded=0;orthogonalLoop=1;jettySize=auto;html=1;exitX=0.5;exitY=1;exitDx=0;exitDy=0;exitPerimeter=0;entryX=0;entryY=0.5;entryDx=0;entryDy=0;" edge="1" parent="WIyWlLk6GJQsqaUBKTNV-1" source="pdm6zaToR2iUX3HoChXL-12" target="pdm6zaToR2iUX3HoChXL-3">
          <mxGeometry relative="1" as="geometry" />
        </mxCell>
        <mxCell id="pdm6zaToR2iUX3HoChXL-12" value="Error" style="strokeWidth=2;html=1;shape=mxgraph.flowchart.display;whiteSpace=wrap;" vertex="1" parent="WIyWlLk6GJQsqaUBKTNV-1">
          <mxGeometry x="400" y="554" width="100" height="60" as="geometry" />
        </mxCell>
        <mxCell id="pdm6zaToR2iUX3HoChXL-24" style="edgeStyle=orthogonalEdgeStyle;rounded=0;orthogonalLoop=1;jettySize=auto;html=1;exitX=1;exitY=0.5;exitDx=0;exitDy=0;exitPerimeter=0;entryX=0;entryY=0.5;entryDx=0;entryDy=0;" edge="1" parent="WIyWlLk6GJQsqaUBKTNV-1" source="pdm6zaToR2iUX3HoChXL-23" target="pdm6zaToR2iUX3HoChXL-0">
          <mxGeometry relative="1" as="geometry" />
        </mxCell>
        <mxCell id="pdm6zaToR2iUX3HoChXL-26" value="T" style="edgeLabel;html=1;align=center;verticalAlign=middle;resizable=0;points=[];" vertex="1" connectable="0" parent="pdm6zaToR2iUX3HoChXL-24">
          <mxGeometry x="-0.2827" y="-2" relative="1" as="geometry">
            <mxPoint x="-21" y="-17" as="offset" />
          </mxGeometry>
        </mxCell>
        <mxCell id="pdm6zaToR2iUX3HoChXL-23" value="All payment confrimed" style="strokeWidth=2;html=1;shape=mxgraph.flowchart.decision;whiteSpace=wrap;" vertex="1" parent="WIyWlLk6GJQsqaUBKTNV-1">
          <mxGeometry x="390" y="175" width="100" height="100" as="geometry" />
        </mxCell>
        <mxCell id="pdm6zaToR2iUX3HoChXL-27" value="Run callbacks of products" style="verticalLabelPosition=bottom;verticalAlign=top;html=1;shape=process;whiteSpace=wrap;rounded=1;size=0.14;arcSize=6;" vertex="1" parent="WIyWlLk6GJQsqaUBKTNV-1">
          <mxGeometry x="560" y="280" width="100" height="60" as="geometry" />
        </mxCell>
      </root>
    </mxGraphModel>
  </diagram>
</mxfile>
